<?xml version="1.0" encoding="utf-8" standalone="no"?>
<!DOCTYPE svg PUBLIC "-//W3C//DTD SVG 1.1//EN"
  "http://www.w3.org/Graphics/SVG/1.1/DTD/svg11.dtd">
<svg xmlns:xlink="http://www.w3.org/1999/xlink" width="720pt" height="388.8pt" viewBox="0 0 720 388.8" xmlns="http://www.w3.org/2000/svg" version="1.1">
 <metadata>
  <rdf:RDF xmlns:dc="http://purl.org/dc/elements/1.1/" xmlns:cc="http://creativecommons.org/ns#" xmlns:rdf="http://www.w3.org/1999/02/22-rdf-syntax-ns#">
   <cc:Work>
    <dc:type rdf:resource="http://purl.org/dc/dcmitype/StillImage"/>
    <dc:date>2026-10-05T09:04:51.447632</dc:date>
    <dc:format>image/svg+xml</dc:format>
    <dc:creator>
     <cc:Agent>
      <dc:title>Matplotlib v3.10.8, https://matplotlib.org/</dc:title>
     </cc:Agent>
    </dc:creator>
   </cc:Work>
  </rdf:RDF>
 </metadata>
 <defs>
  <style type="text/css">*{stroke-linejoin: round; stroke-linecap: butt}</style>
 </defs>
 <g id="figure_1">
  <g id="patch_1">
   <path d="M 0 388.8 
L 720 388.8 
L 720 0 
L 0 0 
z
" style="fill: #ffffff"/>
  </g>
  <g id="axes_1">
   <g id="patch_2">
    <path d="M 115.2 221.616 
L 691.2 221.616 
L 691.2 77.76 
L 115.2 77.76 
z
" style="fill: #ffffff"/>
   </g>
   <g id="patch_3">
    <path d="M 115.2 171.819692 
L 117.52102 171.819692 
L 117.52102 127.556308 
L 115.2 127.556308 
z
" clip-path="url(#p71438846d8)" style="fill: #b8742f"/>
   </g>
   <g id="patch_4">
    <path d="M 117.52102 171.819692 
L 201.95198 171.819692 
L 201.95198 127.556308 
L 117.52102 127.556308 
z
" clip-path="url(#p71438846d8)" style="fill: #5b70c1"/>
   </g>
   <g id="patch_5">
    <path d="M 201.95198 171.819692 
L 391.587778 171.819692 
L 391.587778 127.556308 
L 201.95198 127.556308 
z
" clip-path="url(#p71438846d8)" style="fill: #008575"/>
   </g>
   <g id="patch_6">
    <path d="M 391.587778 171.819692 
L 486.751016 171.819692 
L 486.751016 127.556308 
L 391.587778 127.556308 
z
" clip-path="url(#p71438846d8)" style="fill: #9b74b5"/>
   </g>
   <g id="patch_7">
    <path d="M 486.751016 171.819692 
L 488.009485 171.819692 
L 488.009485 127.556308 
L 486.751016 127.556308 
z
" clip-path="url(#p71438846d8)" style="fill: #ddab65"/>
   </g>
   <g id="patch_8">
    <path d="M 488.009485 171.819692 
L 612.141355 171.819692 
L 612.141355 127.556308 
L 488.009485 127.556308 
z
" clip-path="url(#p71438846d8)" style="fill: #74899e"/>
   </g>
   <g id="matplotlib.axis_1">
    <g id="xtick_1">
     <g id="line2d_1">
      <path d="M 115.2 221.616 
L 115.2 77.76 
" clip-path="url(#p71438846d8)" style="fill: none; stroke: #b0b0b0; stroke-opacity: 0.15; stroke-width: 0.8; stroke-linecap: square"/>
     </g>
     <g id="line2d_2">
      <defs>
       <path id="m2d89b0c082" d="M 0 0 
L 0 3.5 
" style="stroke: #000000; stroke-width: 0.8"/>
      </defs>
      <g>
       <use xlink:href="#m2d89b0c082" x="115.2" y="221.616" style="stroke: #000000; stroke-width: 0.8"/>
      </g>
     </g>
     <g id="text_1">
      <!-- 0 -->
      <g transform="translate(112.01875 236.214438) scale(0.1 -0.1)">
       <defs>
        <path id="DejaVuSans-30" d="M 2034 4250 
Q 1547 4250 1301 3770 
Q 1056 3291 1056 2328 
Q 1056 1369 1301 889 
Q 1547 409 2034 409 
Q 2525 409 2770 889 
Q 3016 1369 3016 2328 
Q 3016 3291 2770 3770 
Q 2525 4250 2034 4250 
z
M 2034 4750 
Q 2819 4750 3233 4129 
Q 3647 3509 3647 2328 
Q 3647 1150 3233 529 
Q 2819 -91 2034 -91 
Q 1250 -91 836 529 
Q 422 1150 422 2328 
Q 422 3509 836 4129 
Q 1250 4750 2034 4750 
z
" transform="scale(0.015625)"/>
       </defs>
       <use xlink:href="#DejaVuSans-30"/>
      </g>
     </g>
    </g>
    <g id="xtick_2">
     <g id="line2d_3">
      <path d="M 187.2 221.616 
L 187.2 77.76 
" clip-path="url(#p71438846d8)" style="fill: none; stroke: #b0b0b0; stroke-opacity: 0.15; stroke-width: 0.8; stroke-linecap: square"/>
     </g>
     <g id="line2d_4">
      <g>
       <use xlink:href="#m2d89b0c082" x="187.2" y="221.616" style="stroke: #000000; stroke-width: 0.8"/>
      </g>
     </g>
     <g id="text_2">
      <!-- 2 -->
      <g transform="translate(184.01875 236.214438) scale(0.1 -0.1)">
       <defs>
        <path id="DejaVuSans-32" d="M 1228 531 
L 3431 531 
L 3431 0 
L 469 0 
L 469 531 
Q 828 903 1448 1529 
Q 2069 2156 2228 2338 
Q 2531 2678 2651 2914 
Q 2772 3150 2772 3378 
Q 2772 3750 2511 3984 
Q 2250 4219 1831 4219 
Q 1534 4219 1204 4116 
Q 875 4013 500 3803 
L 500 4441 
Q 881 4594 1212 4672 
Q 1544 4750 1819 4750 
Q 2544 4750 2975 4387 
Q 3406 4025 3406 3419 
Q 3406 3131 3298 2873 
Q 3191 2616 2906 2266 
Q 2828 2175 2409 1742 
Q 1991 1309 1228 531 
z
" transform="scale(0.015625)"/>
       </defs>
       <use xlink:href="#DejaVuSans-32"/>
      </g>
     </g>
    </g>
    <g id="xtick_3">
     <g id="line2d_5">
      <path d="M 259.2 221.616 
L 259.2 77.76 
" clip-path="url(#p71438846d8)" style="fill: none; stroke: #b0b0b0; stroke-opacity: 0.15; stroke-width: 0.8; stroke-linecap: square"/>
     </g>
     <g id="line2d_6">
      <g>
       <use xlink:href="#m2d89b0c082" x="259.2" y="221.616" style="stroke: #000000; stroke-width: 0.8"/>
      </g>
     </g>
     <g id="text_3">
      <!-- 4 -->
      <g transform="translate(256.01875 236.214438) scale(0.1 -0.1)">
       <defs>
        <path id="DejaVuSans-34" d="M 2419 4116 
L 825 1625 
L 2419 1625 
L 2419 4116 
z
M 2253 4666 
L 3047 4666 
L 3047 1625 
L 3713 1625 
L 3713 1100 
L 3047 1100 
L 3047 0 
L 2419 0 
L 2419 1100 
L 313 1100 
L 313 1709 
L 2253 4666 
z
" transform="scale(0.015625)"/>
       </defs>
       <use xlink:href="#DejaVuSans-34"/>
      </g>
     </g>
    </g>
    <g id="xtick_4">
     <g id="line2d_7">
      <path d="M 331.2 221.616 
L 331.2 77.76 
" clip-path="url(#p71438846d8)" style="fill: none; stroke: #b0b0b0; stroke-opacity: 0.15; stroke-width: 0.8; stroke-linecap: square"/>
     </g>
     <g id="line2d_8">
      <g>
       <use xlink:href="#m2d89b0c082" x="331.2" y="221.616" style="stroke: #000000; stroke-width: 0.8"/>
      </g>
     </g>
     <g id="text_4">
      <!-- 6 -->
      <g transform="translate(328.01875 236.214438) scale(0.1 -0.1)">
       <defs>
        <path id="DejaVuSans-36" d="M 2113 2584 
Q 1688 2584 1439 2293 
Q 1191 2003 1191 1497 
Q 1191 994 1439 701 
Q 1688 409 2113 409 
Q 2538 409 2786 701 
Q 3034 994 3034 1497 
Q 3034 2003 2786 2293 
Q 2538 2584 2113 2584 
z
M 3366 4563 
L 3366 3988 
Q 3128 4100 2886 4159 
Q 2644 4219 2406 4219 
Q 1781 4219 1451 3797 
Q 1122 3375 1075 2522 
Q 1259 2794 1537 2939 
Q 1816 3084 2150 3084 
Q 2853 3084 3261 2657 
Q 3669 2231 3669 1497 
Q 3669 778 3244 343 
Q 2819 -91 2113 -91 
Q 1303 -91 875 529 
Q 447 1150 447 2328 
Q 447 3434 972 4092 
Q 1497 4750 2381 4750 
Q 2619 4750 2861 4703 
Q 3103 4656 3366 4563 
z
" transform="scale(0.015625)"/>
       </defs>
       <use xlink:href="#DejaVuSans-36"/>
      </g>
     </g>
    </g>
    <g id="xtick_5">
     <g id="line2d_9">
      <path d="M 403.2 221.616 
L 403.2 77.76 
" clip-path="url(#p71438846d8)" style="fill: none; stroke: #b0b0b0; stroke-opacity: 0.15; stroke-width: 0.8; stroke-linecap: square"/>
     </g>
     <g id="line2d_10">
      <g>
       <use xlink:href="#m2d89b0c082" x="403.2" y="221.616" style="stroke: #000000; stroke-width: 0.8"/>
      </g>
     </g>
     <g id="text_5">
      <!-- 8 -->
      <g transform="translate(400.01875 236.214438) scale(0.1 -0.1)">
       <defs>
        <path id="DejaVuSans-38" d="M 2034 2216 
Q 1584 2216 1326 1975 
Q 1069 1734 1069 1313 
Q 1069 891 1326 650 
Q 1584 409 2034 409 
Q 2484 409 2743 651 
Q 3003 894 3003 1313 
Q 3003 1734 2745 1975 
Q 2488 2216 2034 2216 
z
M 1403 2484 
Q 997 2584 770 2862 
Q 544 3141 544 3541 
Q 544 4100 942 4425 
Q 1341 4750 2034 4750 
Q 2731 4750 3128 4425 
Q 3525 4100 3525 3541 
Q 3525 3141 3298 2862 
Q 3072 2584 2669 2484 
Q 3125 2378 3379 2068 
Q 3634 1759 3634 1313 
Q 3634 634 3220 271 
Q 2806 -91 2034 -91 
Q 1263 -91 848 271 
Q 434 634 434 1313 
Q 434 1759 690 2068 
Q 947 2378 1403 2484 
z
M 1172 3481 
Q 1172 3119 1398 2916 
Q 1625 2713 2034 2713 
Q 2441 2713 2670 2916 
Q 2900 3119 2900 3481 
Q 2900 3844 2670 4047 
Q 2441 4250 2034 4250 
Q 1625 4250 1398 4047 
Q 1172 3844 1172 3481 
z
" transform="scale(0.015625)"/>
       </defs>
       <use xlink:href="#DejaVuSans-38"/>
      </g>
     </g>
    </g>
    <g id="xtick_6">
     <g id="line2d_11">
      <path d="M 475.2 221.616 
L 475.2 77.76 
" clip-path="url(#p71438846d8)" style="fill: none; stroke: #b0b0b0; stroke-opacity: 0.15; stroke-width: 0.8; stroke-linecap: square"/>
     </g>
     <g id="line2d_12">
      <g>
       <use xlink:href="#m2d89b0c082" x="475.2" y="221.616" style="stroke: #000000; stroke-width: 0.8"/>
      </g>
     </g>
     <g id="text_6">
      <!-- 10 -->
      <g transform="translate(468.8375 236.214438) scale(0.1 -0.1)">
       <defs>
        <path id="DejaVuSans-31" d="M 794 531 
L 1825 531 
L 1825 4091 
L 703 3866 
L 703 4441 
L 1819 4666 
L 2450 4666 
L 2450 531 
L 3481 531 
L 3481 0 
L 794 0 
L 794 531 
z
" transform="scale(0.015625)"/>
       </defs>
       <use xlink:href="#DejaVuSans-31"/>
       <use xlink:href="#DejaVuSans-30" transform="translate(63.623047 0)"/>
      </g>
     </g>
    </g>
    <g id="xtick_7">
     <g id="line2d_13">
      <path d="M 547.2 221.616 
L 547.2 77.76 
" clip-path="url(#p71438846d8)" style="fill: none; stroke: #b0b0b0; stroke-opacity: 0.15; stroke-width: 0.8; stroke-linecap: square"/>
     </g>
     <g id="line2d_14">
      <g>
       <use xlink:href="#m2d89b0c082" x="547.2" y="221.616" style="stroke: #000000; stroke-width: 0.8"/>
      </g>
     </g>
     <g id="text_7">
      <!-- 12 -->
      <g transform="translate(540.8375 236.214438) scale(0.1 -0.1)">
       <use xlink:href="#DejaVuSans-31"/>
       <use xlink:href="#DejaVuSans-32" transform="translate(63.623047 0)"/>
      </g>
     </g>
    </g>
    <g id="xtick_8">
     <g id="line2d_15">
      <path d="M 619.2 221.616 
L 619.2 77.76 
" clip-path="url(#p71438846d8)" style="fill: none; stroke: #b0b0b0; stroke-opacity: 0.15; stroke-width: 0.8; stroke-linecap: square"/>
     </g>
     <g id="line2d_16">
      <g>
       <use xlink:href="#m2d89b0c082" x="619.2" y="221.616" style="stroke: #000000; stroke-width: 0.8"/>
      </g>
     </g>
     <g id="text_8">
      <!-- 14 -->
      <g transform="translate(612.8375 236.214438) scale(0.1 -0.1)">
       <use xlink:href="#DejaVuSans-31"/>
       <use xlink:href="#DejaVuSans-34" transform="translate(63.623047 0)"/>
      </g>
     </g>
    </g>
    <g id="xtick_9">
     <g id="line2d_17">
      <path d="M 691.2 221.616 
L 691.2 77.76 
" clip-path="url(#p71438846d8)" style="fill: none; stroke: #b0b0b0; stroke-opacity: 0.15; stroke-width: 0.8; stroke-linecap: square"/>
     </g>
     <g id="line2d_18">
      <g>
       <use xlink:href="#m2d89b0c082" x="691.2" y="221.616" style="stroke: #000000; stroke-width: 0.8"/>
      </g>
     </g>
     <g id="text_9">
      <!-- 16 -->
      <g transform="translate(684.8375 236.214438) scale(0.1 -0.1)">
       <use xlink:href="#DejaVuSans-31"/>
       <use xlink:href="#DejaVuSans-36" transform="translate(63.623047 0)"/>
      </g>
     </g>
    </g>
    <g id="text_10">
     <!-- Milliseconds per decode token, all 28 layers -->
     <g transform="translate(293.819531 249.892562) scale(0.1 -0.1)">
      <defs>
       <path id="DejaVuSans-4d" d="M 628 4666 
L 1569 4666 
L 2759 1491 
L 3956 4666 
L 4897 4666 
L 4897 0 
L 4281 0 
L 4281 4097 
L 3078 897 
L 2444 897 
L 1241 4097 
L 1241 0 
L 628 0 
L 628 4666 
z
" transform="scale(0.015625)"/>
       <path id="DejaVuSans-69" d="M 603 3500 
L 1178 3500 
L 1178 0 
L 603 0 
L 603 3500 
z
M 603 4863 
L 1178 4863 
L 1178 4134 
L 603 4134 
L 603 4863 
z
" transform="scale(0.015625)"/>
       <path id="DejaVuSans-6c" d="M 603 4863 
L 1178 4863 
L 1178 0 
L 603 0 
L 603 4863 
z
" transform="scale(0.015625)"/>
       <path id="DejaVuSans-73" d="M 2834 3397 
L 2834 2853 
Q 2591 2978 2328 3040 
Q 2066 3103 1784 3103 
Q 1356 3103 1142 2972 
Q 928 2841 928 2578 
Q 928 2378 1081 2264 
Q 1234 2150 1697 2047 
L 1894 2003 
Q 2506 1872 2764 1633 
Q 3022 1394 3022 966 
Q 3022 478 2636 193 
Q 2250 -91 1575 -91 
Q 1294 -91 989 -36 
Q 684 19 347 128 
L 347 722 
Q 666 556 975 473 
Q 1284 391 1588 391 
Q 1994 391 2212 530 
Q 2431 669 2431 922 
Q 2431 1156 2273 1281 
Q 2116 1406 1581 1522 
L 1381 1569 
Q 847 1681 609 1914 
Q 372 2147 372 2553 
Q 372 3047 722 3315 
Q 1072 3584 1716 3584 
Q 2034 3584 2315 3537 
Q 2597 3491 2834 3397 
z
" transform="scale(0.015625)"/>
       <path id="DejaVuSans-65" d="M 3597 1894 
L 3597 1613 
L 953 1613 
Q 991 1019 1311 708 
Q 1631 397 2203 397 
Q 2534 397 2845 478 
Q 3156 559 3463 722 
L 3463 178 
Q 3153 47 2828 -22 
Q 2503 -91 2169 -91 
Q 1331 -91 842 396 
Q 353 884 353 1716 
Q 353 2575 817 3079 
Q 1281 3584 2069 3584 
Q 2775 3584 3186 3129 
Q 3597 2675 3597 1894 
z
M 3022 2063 
Q 3016 2534 2758 2815 
Q 2500 3097 2075 3097 
Q 1594 3097 1305 2825 
Q 1016 2553 972 2059 
L 3022 2063 
z
" transform="scale(0.015625)"/>
       <path id="DejaVuSans-63" d="M 3122 3366 
L 3122 2828 
Q 2878 2963 2633 3030 
Q 2388 3097 2138 3097 
Q 1578 3097 1268 2742 
Q 959 2388 959 1747 
Q 959 1106 1268 751 
Q 1578 397 2138 397 
Q 2388 397 2633 464 
Q 2878 531 3122 666 
L 3122 134 
Q 2881 22 2623 -34 
Q 2366 -91 2075 -91 
Q 1284 -91 818 406 
Q 353 903 353 1747 
Q 353 2603 823 3093 
Q 1294 3584 2113 3584 
Q 2378 3584 2631 3529 
Q 2884 3475 3122 3366 
z
" transform="scale(0.015625)"/>
       <path id="DejaVuSans-6f" d="M 1959 3097 
Q 1497 3097 1228 2736 
Q 959 2375 959 1747 
Q 959 1119 1226 758 
Q 1494 397 1959 397 
Q 2419 397 2687 759 
Q 2956 1122 2956 1747 
Q 2956 2369 2687 2733 
Q 2419 3097 1959 3097 
z
M 1959 3584 
Q 2709 3584 3137 3096 
Q 3566 2609 3566 1747 
Q 3566 888 3137 398 
Q 2709 -91 1959 -91 
Q 1206 -91 779 398 
Q 353 888 353 1747 
Q 353 2609 779 3096 
Q 1206 3584 1959 3584 
z
" transform="scale(0.015625)"/>
       <path id="DejaVuSans-6e" d="M 3513 2113 
L 3513 0 
L 2938 0 
L 2938 2094 
Q 2938 2591 2744 2837 
Q 2550 3084 2163 3084 
Q 1697 3084 1428 2787 
Q 1159 2491 1159 1978 
L 1159 0 
L 581 0 
L 581 3500 
L 1159 3500 
L 1159 2956 
Q 1366 3272 1645 3428 
Q 1925 3584 2291 3584 
Q 2894 3584 3203 3211 
Q 3513 2838 3513 2113 
z
" transform="scale(0.015625)"/>
       <path id="DejaVuSans-64" d="M 2906 2969 
L 2906 4863 
L 3481 4863 
L 3481 0 
L 2906 0 
L 2906 525 
Q 2725 213 2448 61 
Q 2172 -91 1784 -91 
Q 1150 -91 751 415 
Q 353 922 353 1747 
Q 353 2572 751 3078 
Q 1150 3584 1784 3584 
Q 2172 3584 2448 3432 
Q 2725 3281 2906 2969 
z
M 947 1747 
Q 947 1113 1208 752 
Q 1469 391 1925 391 
Q 2381 391 2643 752 
Q 2906 1113 2906 1747 
Q 2906 2381 2643 2742 
Q 2381 3103 1925 3103 
Q 1469 3103 1208 2742 
Q 947 2381 947 1747 
z
" transform="scale(0.015625)"/>
       <path id="DejaVuSans-20" transform="scale(0.015625)"/>
       <path id="DejaVuSans-70" d="M 1159 525 
L 1159 -1331 
L 581 -1331 
L 581 3500 
L 1159 3500 
L 1159 2969 
Q 1341 3281 1617 3432 
Q 1894 3584 2278 3584 
Q 2916 3584 3314 3078 
Q 3713 2572 3713 1747 
Q 3713 922 3314 415 
Q 2916 -91 2278 -91 
Q 1894 -91 1617 61 
Q 1341 213 1159 525 
z
M 3116 1747 
Q 3116 2381 2855 2742 
Q 2594 3103 2138 3103 
Q 1681 3103 1420 2742 
Q 1159 2381 1159 1747 
Q 1159 1113 1420 752 
Q 1681 391 2138 391 
Q 2594 391 2855 752 
Q 3116 1113 3116 1747 
z
" transform="scale(0.015625)"/>
       <path id="DejaVuSans-72" d="M 2631 2963 
Q 2534 3019 2420 3045 
Q 2306 3072 2169 3072 
Q 1681 3072 1420 2755 
Q 1159 2438 1159 1844 
L 1159 0 
L 581 0 
L 581 3500 
L 1159 3500 
L 1159 2956 
Q 1341 3275 1631 3429 
Q 1922 3584 2338 3584 
Q 2397 3584 2469 3576 
Q 2541 3569 2628 3553 
L 2631 2963 
z
" transform="scale(0.015625)"/>
       <path id="DejaVuSans-74" d="M 1172 4494 
L 1172 3500 
L 2356 3500 
L 2356 3053 
L 1172 3053 
L 1172 1153 
Q 1172 725 1289 603 
Q 1406 481 1766 481 
L 2356 481 
L 2356 0 
L 1766 0 
Q 1100 0 847 248 
Q 594 497 594 1153 
L 594 3053 
L 172 3053 
L 172 3500 
L 594 3500 
L 594 4494 
L 1172 4494 
z
" transform="scale(0.015625)"/>
       <path id="DejaVuSans-6b" d="M 581 4863 
L 1159 4863 
L 1159 1991 
L 2875 3500 
L 3609 3500 
L 1753 1863 
L 3688 0 
L 2938 0 
L 1159 1709 
L 1159 0 
L 581 0 
L 581 4863 
z
" transform="scale(0.015625)"/>
       <path id="DejaVuSans-2c" d="M 750 794 
L 1409 794 
L 1409 256 
L 897 -744 
L 494 -744 
L 750 256 
L 750 794 
z
" transform="scale(0.015625)"/>
       <path id="DejaVuSans-61" d="M 2194 1759 
Q 1497 1759 1228 1600 
Q 959 1441 959 1056 
Q 959 750 1161 570 
Q 1363 391 1709 391 
Q 2188 391 2477 730 
Q 2766 1069 2766 1631 
L 2766 1759 
L 2194 1759 
z
M 3341 1997 
L 3341 0 
L 2766 0 
L 2766 531 
Q 2569 213 2275 61 
Q 1981 -91 1556 -91 
Q 1019 -91 701 211 
Q 384 513 384 1019 
Q 384 1609 779 1909 
Q 1175 2209 1959 2209 
L 2766 2209 
L 2766 2266 
Q 2766 2663 2505 2880 
Q 2244 3097 1772 3097 
Q 1472 3097 1187 3025 
Q 903 2953 641 2809 
L 641 3341 
Q 956 3463 1253 3523 
Q 1550 3584 1831 3584 
Q 2591 3584 2966 3190 
Q 3341 2797 3341 1997 
z
" transform="scale(0.015625)"/>
       <path id="DejaVuSans-79" d="M 2059 -325 
Q 1816 -950 1584 -1140 
Q 1353 -1331 966 -1331 
L 506 -1331 
L 506 -850 
L 844 -850 
Q 1081 -850 1212 -737 
Q 1344 -625 1503 -206 
L 1606 56 
L 191 3500 
L 800 3500 
L 1894 763 
L 2988 3500 
L 3597 3500 
L 2059 -325 
z
" transform="scale(0.015625)"/>
      </defs>
      <use xlink:href="#DejaVuSans-4d"/>
      <use xlink:href="#DejaVuSans-69" transform="translate(86.279297 0)"/>
      <use xlink:href="#DejaVuSans-6c" transform="translate(114.0625 0)"/>
      <use xlink:href="#DejaVuSans-6c" transform="translate(141.845703 0)"/>
      <use xlink:href="#DejaVuSans-69" transform="translate(169.628906 0)"/>
      <use xlink:href="#DejaVuSans-73" transform="translate(197.412109 0)"/>
      <use xlink:href="#DejaVuSans-65" transform="translate(249.511719 0)"/>
      <use xlink:href="#DejaVuSans-63" transform="translate(311.035156 0)"/>
      <use xlink:href="#DejaVuSans-6f" transform="translate(366.015625 0)"/>
      <use xlink:href="#DejaVuSans-6e" transform="translate(427.197266 0)"/>
      <use xlink:href="#DejaVuSans-64" transform="translate(490.576172 0)"/>
      <use xlink:href="#DejaVuSans-73" transform="translate(554.052734 0)"/>
      <use xlink:href="#DejaVuSans-20" transform="translate(606.152344 0)"/>
      <use xlink:href="#DejaVuSans-70" transform="translate(637.939453 0)"/>
      <use xlink:href="#DejaVuSans-65" transform="translate(701.416016 0)"/>
      <use xlink:href="#DejaVuSans-72" transform="translate(762.939453 0)"/>
      <use xlink:href="#DejaVuSans-20" transform="translate(804.052734 0)"/>
      <use xlink:href="#DejaVuSans-64" transform="translate(835.839844 0)"/>
      <use xlink:href="#DejaVuSans-65" transform="translate(899.316406 0)"/>
      <use xlink:href="#DejaVuSans-63" transform="translate(960.839844 0)"/>
      <use xlink:href="#DejaVuSans-6f" transform="translate(1015.820312 0)"/>
      <use xlink:href="#DejaVuSans-64" transform="translate(1077.001953 0)"/>
      <use xlink:href="#DejaVuSans-65" transform="translate(1140.478516 0)"/>
      <use xlink:href="#DejaVuSans-20" transform="translate(1202.001953 0)"/>
      <use xlink:href="#DejaVuSans-74" transform="translate(1233.789062 0)"/>
      <use xlink:href="#DejaVuSans-6f" transform="translate(1272.998047 0)"/>
      <use xlink:href="#DejaVuSans-6b" transform="translate(1334.179688 0)"/>
      <use xlink:href="#DejaVuSans-65" transform="translate(1388.464844 0)"/>
      <use xlink:href="#DejaVuSans-6e" transform="translate(1449.988281 0)"/>
      <use xlink:href="#DejaVuSans-2c" transform="translate(1513.367188 0)"/>
      <use xlink:href="#DejaVuSans-20" transform="translate(1545.154297 0)"/>
      <use xlink:href="#DejaVuSans-61" transform="translate(1576.941406 0)"/>
      <use xlink:href="#DejaVuSans-6c" transform="translate(1638.220703 0)"/>
      <use xlink:href="#DejaVuSans-6c" transform="translate(1666.003906 0)"/>
      <use xlink:href="#DejaVuSans-20" transform="translate(1693.787109 0)"/>
      <use xlink:href="#DejaVuSans-32" transform="translate(1725.574219 0)"/>
      <use xlink:href="#DejaVuSans-38" transform="translate(1789.197266 0)"/>
      <use xlink:href="#DejaVuSans-20" transform="translate(1852.820312 0)"/>
      <use xlink:href="#DejaVuSans-6c" transform="translate(1884.607422 0)"/>
      <use xlink:href="#DejaVuSans-61" transform="translate(1912.390625 0)"/>
      <use xlink:href="#DejaVuSans-79" transform="translate(1973.669922 0)"/>
      <use xlink:href="#DejaVuSans-65" transform="translate(2032.849609 0)"/>
      <use xlink:href="#DejaVuSans-72" transform="translate(2094.373047 0)"/>
      <use xlink:href="#DejaVuSans-73" transform="translate(2135.486328 0)"/>
     </g>
    </g>
   </g>
   <g id="matplotlib.axis_2">
    <g id="ytick_1">
     <g id="line2d_19">
      <defs>
       <path id="m2aed5b1025" d="M 0 0 
L -3.5 0 
" style="stroke: #000000; stroke-width: 0.8"/>
      </defs>
      <g>
       <use xlink:href="#m2aed5b1025" x="115.2" y="149.688" style="stroke: #000000; stroke-width: 0.8"/>
      </g>
     </g>
     <g id="text_11">
      <!-- GPU attention -->
      <g transform="translate(38.310937 153.487219) scale(0.1 -0.1)">
       <defs>
        <path id="DejaVuSans-47" d="M 3809 666 
L 3809 1919 
L 2778 1919 
L 2778 2438 
L 4434 2438 
L 4434 434 
Q 4069 175 3628 42 
Q 3188 -91 2688 -91 
Q 1594 -91 976 548 
Q 359 1188 359 2328 
Q 359 3472 976 4111 
Q 1594 4750 2688 4750 
Q 3144 4750 3555 4637 
Q 3966 4525 4313 4306 
L 4313 3634 
Q 3963 3931 3569 4081 
Q 3175 4231 2741 4231 
Q 1884 4231 1454 3753 
Q 1025 3275 1025 2328 
Q 1025 1384 1454 906 
Q 1884 428 2741 428 
Q 3075 428 3337 486 
Q 3600 544 3809 666 
z
" transform="scale(0.015625)"/>
        <path id="DejaVuSans-50" d="M 1259 4147 
L 1259 2394 
L 2053 2394 
Q 2494 2394 2734 2622 
Q 2975 2850 2975 3272 
Q 2975 3691 2734 3919 
Q 2494 4147 2053 4147 
L 1259 4147 
z
M 628 4666 
L 2053 4666 
Q 2838 4666 3239 4311 
Q 3641 3956 3641 3272 
Q 3641 2581 3239 2228 
Q 2838 1875 2053 1875 
L 1259 1875 
L 1259 0 
L 628 0 
L 628 4666 
z
" transform="scale(0.015625)"/>
        <path id="DejaVuSans-55" d="M 556 4666 
L 1191 4666 
L 1191 1831 
Q 1191 1081 1462 751 
Q 1734 422 2344 422 
Q 2950 422 3222 751 
Q 3494 1081 3494 1831 
L 3494 4666 
L 4128 4666 
L 4128 1753 
Q 4128 841 3676 375 
Q 3225 -91 2344 -91 
Q 1459 -91 1007 375 
Q 556 841 556 1753 
L 556 4666 
z
" transform="scale(0.015625)"/>
       </defs>
       <use xlink:href="#DejaVuSans-47"/>
       <use xlink:href="#DejaVuSans-50" transform="translate(77.490234 0)"/>
       <use xlink:href="#DejaVuSans-55" transform="translate(137.792969 0)"/>
       <use xlink:href="#DejaVuSans-20" transform="translate(210.986328 0)"/>
       <use xlink:href="#DejaVuSans-61" transform="translate(242.773438 0)"/>
       <use xlink:href="#DejaVuSans-74" transform="translate(304.052734 0)"/>
       <use xlink:href="#DejaVuSans-74" transform="translate(343.261719 0)"/>
       <use xlink:href="#DejaVuSans-65" transform="translate(382.470703 0)"/>
       <use xlink:href="#DejaVuSans-6e" transform="translate(443.994141 0)"/>
       <use xlink:href="#DejaVuSans-74" transform="translate(507.373047 0)"/>
       <use xlink:href="#DejaVuSans-69" transform="translate(546.582031 0)"/>
       <use xlink:href="#DejaVuSans-6f" transform="translate(574.365234 0)"/>
       <use xlink:href="#DejaVuSans-6e" transform="translate(635.546875 0)"/>
      </g>
     </g>
    </g>
   </g>
   <g id="patch_9">
    <path d="M 115.2 221.616 
L 115.2 77.76 
" style="fill: none; stroke: #000000; stroke-width: 0.8; stroke-linejoin: miter; stroke-linecap: square"/>
   </g>
   <g id="patch_10">
    <path d="M 115.2 221.616 
L 691.2 221.616 
" style="fill: none; stroke: #000000; stroke-width: 0.8; stroke-linejoin: miter; stroke-linecap: square"/>
   </g>
   <g id="text_12">
    <!-- 13.80 ms -->
    <g transform="translate(617.901355 152.99925) scale(0.12 -0.12)">
     <defs>
      <path id="DejaVuSans-33" d="M 2597 2516 
Q 3050 2419 3304 2112 
Q 3559 1806 3559 1356 
Q 3559 666 3084 287 
Q 2609 -91 1734 -91 
Q 1441 -91 1130 -33 
Q 819 25 488 141 
L 488 750 
Q 750 597 1062 519 
Q 1375 441 1716 441 
Q 2309 441 2620 675 
Q 2931 909 2931 1356 
Q 2931 1769 2642 2001 
Q 2353 2234 1838 2234 
L 1294 2234 
L 1294 2753 
L 1863 2753 
Q 2328 2753 2575 2939 
Q 2822 3125 2822 3475 
Q 2822 3834 2567 4026 
Q 2313 4219 1838 4219 
Q 1578 4219 1281 4162 
Q 984 4106 628 3988 
L 628 4550 
Q 988 4650 1302 4700 
Q 1616 4750 1894 4750 
Q 2613 4750 3031 4423 
Q 3450 4097 3450 3541 
Q 3450 3153 3228 2886 
Q 3006 2619 2597 2516 
z
" transform="scale(0.015625)"/>
      <path id="DejaVuSans-2e" d="M 684 794 
L 1344 794 
L 1344 0 
L 684 0 
L 684 794 
z
" transform="scale(0.015625)"/>
      <path id="DejaVuSans-6d" d="M 3328 2828 
Q 3544 3216 3844 3400 
Q 4144 3584 4550 3584 
Q 5097 3584 5394 3201 
Q 5691 2819 5691 2113 
L 5691 0 
L 5113 0 
L 5113 2094 
Q 5113 2597 4934 2840 
Q 4756 3084 4391 3084 
Q 3944 3084 3684 2787 
Q 3425 2491 3425 1978 
L 3425 0 
L 2847 0 
L 2847 2094 
Q 2847 2600 2669 2842 
Q 2491 3084 2119 3084 
Q 1678 3084 1418 2786 
Q 1159 2488 1159 1978 
L 1159 0 
L 581 0 
L 581 3500 
L 1159 3500 
L 1159 2956 
Q 1356 3278 1631 3431 
Q 1906 3584 2284 3584 
Q 2666 3584 2933 3390 
Q 3200 3197 3328 2828 
z
" transform="scale(0.015625)"/>
     </defs>
     <use xlink:href="#DejaVuSans-31"/>
     <use xlink:href="#DejaVuSans-33" transform="translate(63.623047 0)"/>
     <use xlink:href="#DejaVuSans-2e" transform="translate(127.246094 0)"/>
     <use xlink:href="#DejaVuSans-38" transform="translate(159.033203 0)"/>
     <use xlink:href="#DejaVuSans-30" transform="translate(222.65625 0)"/>
     <use xlink:href="#DejaVuSans-20" transform="translate(286.279297 0)"/>
     <use xlink:href="#DejaVuSans-6d" transform="translate(318.066406 0)"/>
     <use xlink:href="#DejaVuSans-73" transform="translate(415.478516 0)"/>
    </g>
   </g>
  </g>
  <g id="text_13">
   <!-- Mali GPU attention · 256-token prompt -->
   <g transform="translate(195.858359 28.469344) scale(0.17 -0.17)">
    <defs>
     <path id="DejaVuSans-b7" d="M 684 2619 
L 1344 2619 
L 1344 1825 
L 684 1825 
L 684 2619 
z
" transform="scale(0.015625)"/>
     <path id="DejaVuSans-35" d="M 691 4666 
L 3169 4666 
L 3169 4134 
L 1269 4134 
L 1269 2991 
Q 1406 3038 1543 3061 
Q 1681 3084 1819 3084 
Q 2600 3084 3056 2656 
Q 3513 2228 3513 1497 
Q 3513 744 3044 326 
Q 2575 -91 1722 -91 
Q 1428 -91 1123 -41 
Q 819 9 494 109 
L 494 744 
Q 775 591 1075 516 
Q 1375 441 1709 441 
Q 2250 441 2565 725 
Q 2881 1009 2881 1497 
Q 2881 1984 2565 2268 
Q 2250 2553 1709 2553 
Q 1456 2553 1204 2497 
Q 953 2441 691 2322 
L 691 4666 
z
" transform="scale(0.015625)"/>
     <path id="DejaVuSans-2d" d="M 313 2009 
L 1997 2009 
L 1997 1497 
L 313 1497 
L 313 2009 
z
" transform="scale(0.015625)"/>
    </defs>
    <use xlink:href="#DejaVuSans-4d"/>
    <use xlink:href="#DejaVuSans-61" transform="translate(86.279297 0)"/>
    <use xlink:href="#DejaVuSans-6c" transform="translate(147.558594 0)"/>
    <use xlink:href="#DejaVuSans-69" transform="translate(175.341797 0)"/>
    <use xlink:href="#DejaVuSans-20" transform="translate(203.125 0)"/>
    <use xlink:href="#DejaVuSans-47" transform="translate(234.912109 0)"/>
    <use xlink:href="#DejaVuSans-50" transform="translate(312.402344 0)"/>
    <use xlink:href="#DejaVuSans-55" transform="translate(372.705078 0)"/>
    <use xlink:href="#DejaVuSans-20" transform="translate(445.898438 0)"/>
    <use xlink:href="#DejaVuSans-61" transform="translate(477.685547 0)"/>
    <use xlink:href="#DejaVuSans-74" transform="translate(538.964844 0)"/>
    <use xlink:href="#DejaVuSans-74" transform="translate(578.173828 0)"/>
    <use xlink:href="#DejaVuSans-65" transform="translate(617.382812 0)"/>
    <use xlink:href="#DejaVuSans-6e" transform="translate(678.90625 0)"/>
    <use xlink:href="#DejaVuSans-74" transform="translate(742.285156 0)"/>
    <use xlink:href="#DejaVuSans-69" transform="translate(781.494141 0)"/>
    <use xlink:href="#DejaVuSans-6f" transform="translate(809.277344 0)"/>
    <use xlink:href="#DejaVuSans-6e" transform="translate(870.458984 0)"/>
    <use xlink:href="#DejaVuSans-20" transform="translate(933.837891 0)"/>
    <use xlink:href="#DejaVuSans-b7" transform="translate(965.625 0)"/>
    <use xlink:href="#DejaVuSans-20" transform="translate(997.412109 0)"/>
    <use xlink:href="#DejaVuSans-32" transform="translate(1029.199219 0)"/>
    <use xlink:href="#DejaVuSans-35" transform="translate(1092.822266 0)"/>
    <use xlink:href="#DejaVuSans-36" transform="translate(1156.445312 0)"/>
    <use xlink:href="#DejaVuSans-2d" transform="translate(1220.068359 0)"/>
    <use xlink:href="#DejaVuSans-74" transform="translate(1256.152344 0)"/>
    <use xlink:href="#DejaVuSans-6f" transform="translate(1295.361328 0)"/>
    <use xlink:href="#DejaVuSans-6b" transform="translate(1356.542969 0)"/>
    <use xlink:href="#DejaVuSans-65" transform="translate(1410.828125 0)"/>
    <use xlink:href="#DejaVuSans-6e" transform="translate(1472.351562 0)"/>
    <use xlink:href="#DejaVuSans-20" transform="translate(1535.730469 0)"/>
    <use xlink:href="#DejaVuSans-70" transform="translate(1567.517578 0)"/>
    <use xlink:href="#DejaVuSans-72" transform="translate(1630.994141 0)"/>
    <use xlink:href="#DejaVuSans-6f" transform="translate(1669.857422 0)"/>
    <use xlink:href="#DejaVuSans-6d" transform="translate(1731.039062 0)"/>
    <use xlink:href="#DejaVuSans-70" transform="translate(1828.451172 0)"/>
    <use xlink:href="#DejaVuSans-74" transform="translate(1891.927734 0)"/>
   </g>
  </g>
  <g id="text_14">
   <!-- Separate event-profile run, two measured requests; three kernels and one blocking result read per layer. -->
   <g style="fill: #526171" transform="translate(43.2 355.393969) scale(0.09 -0.09)">
    <defs>
     <path id="DejaVuSans-53" d="M 3425 4513 
L 3425 3897 
Q 3066 4069 2747 4153 
Q 2428 4238 2131 4238 
Q 1616 4238 1336 4038 
Q 1056 3838 1056 3469 
Q 1056 3159 1242 3001 
Q 1428 2844 1947 2747 
L 2328 2669 
Q 3034 2534 3370 2195 
Q 3706 1856 3706 1288 
Q 3706 609 3251 259 
Q 2797 -91 1919 -91 
Q 1588 -91 1214 -16 
Q 841 59 441 206 
L 441 856 
Q 825 641 1194 531 
Q 1563 422 1919 422 
Q 2459 422 2753 634 
Q 3047 847 3047 1241 
Q 3047 1584 2836 1778 
Q 2625 1972 2144 2069 
L 1759 2144 
Q 1053 2284 737 2584 
Q 422 2884 422 3419 
Q 422 4038 858 4394 
Q 1294 4750 2059 4750 
Q 2388 4750 2728 4690 
Q 3069 4631 3425 4513 
z
" transform="scale(0.015625)"/>
     <path id="DejaVuSans-76" d="M 191 3500 
L 800 3500 
L 1894 563 
L 2988 3500 
L 3597 3500 
L 2284 0 
L 1503 0 
L 191 3500 
z
" transform="scale(0.015625)"/>
     <path id="DejaVuSans-66" d="M 2375 4863 
L 2375 4384 
L 1825 4384 
Q 1516 4384 1395 4259 
Q 1275 4134 1275 3809 
L 1275 3500 
L 2222 3500 
L 2222 3053 
L 1275 3053 
L 1275 0 
L 697 0 
L 697 3053 
L 147 3053 
L 147 3500 
L 697 3500 
L 697 3744 
Q 697 4328 969 4595 
Q 1241 4863 1831 4863 
L 2375 4863 
z
" transform="scale(0.015625)"/>
     <path id="DejaVuSans-75" d="M 544 1381 
L 544 3500 
L 1119 3500 
L 1119 1403 
Q 1119 906 1312 657 
Q 1506 409 1894 409 
Q 2359 409 2629 706 
Q 2900 1003 2900 1516 
L 2900 3500 
L 3475 3500 
L 3475 0 
L 2900 0 
L 2900 538 
Q 2691 219 2414 64 
Q 2138 -91 1772 -91 
Q 1169 -91 856 284 
Q 544 659 544 1381 
z
M 1991 3584 
L 1991 3584 
z
" transform="scale(0.015625)"/>
     <path id="DejaVuSans-77" d="M 269 3500 
L 844 3500 
L 1563 769 
L 2278 3500 
L 2956 3500 
L 3675 769 
L 4391 3500 
L 4966 3500 
L 4050 0 
L 3372 0 
L 2619 2869 
L 1863 0 
L 1184 0 
L 269 3500 
z
" transform="scale(0.015625)"/>
     <path id="DejaVuSans-71" d="M 947 1747 
Q 947 1113 1208 752 
Q 1469 391 1925 391 
Q 2381 391 2643 752 
Q 2906 1113 2906 1747 
Q 2906 2381 2643 2742 
Q 2381 3103 1925 3103 
Q 1469 3103 1208 2742 
Q 947 2381 947 1747 
z
M 2906 525 
Q 2725 213 2448 61 
Q 2172 -91 1784 -91 
Q 1150 -91 751 415 
Q 353 922 353 1747 
Q 353 2572 751 3078 
Q 1150 3584 1784 3584 
Q 2172 3584 2448 3432 
Q 2725 3281 2906 2969 
L 2906 3500 
L 3481 3500 
L 3481 -1331 
L 2906 -1331 
L 2906 525 
z
" transform="scale(0.015625)"/>
     <path id="DejaVuSans-3b" d="M 750 3309 
L 1409 3309 
L 1409 2516 
L 750 2516 
L 750 3309 
z
M 750 794 
L 1409 794 
L 1409 256 
L 897 -744 
L 494 -744 
L 750 256 
L 750 794 
z
" transform="scale(0.015625)"/>
     <path id="DejaVuSans-68" d="M 3513 2113 
L 3513 0 
L 2938 0 
L 2938 2094 
Q 2938 2591 2744 2837 
Q 2550 3084 2163 3084 
Q 1697 3084 1428 2787 
Q 1159 2491 1159 1978 
L 1159 0 
L 581 0 
L 581 4863 
L 1159 4863 
L 1159 2956 
Q 1366 3272 1645 3428 
Q 1925 3584 2291 3584 
Q 2894 3584 3203 3211 
Q 3513 2838 3513 2113 
z
" transform="scale(0.015625)"/>
     <path id="DejaVuSans-62" d="M 3116 1747 
Q 3116 2381 2855 2742 
Q 2594 3103 2138 3103 
Q 1681 3103 1420 2742 
Q 1159 2381 1159 1747 
Q 1159 1113 1420 752 
Q 1681 391 2138 391 
Q 2594 391 2855 752 
Q 3116 1113 3116 1747 
z
M 1159 2969 
Q 1341 3281 1617 3432 
Q 1894 3584 2278 3584 
Q 2916 3584 3314 3078 
Q 3713 2572 3713 1747 
Q 3713 922 3314 415 
Q 2916 -91 2278 -91 
Q 1894 -91 1617 61 
Q 1341 213 1159 525 
L 1159 0 
L 581 0 
L 581 4863 
L 1159 4863 
L 1159 2969 
z
" transform="scale(0.015625)"/>
     <path id="DejaVuSans-67" d="M 2906 1791 
Q 2906 2416 2648 2759 
Q 2391 3103 1925 3103 
Q 1463 3103 1205 2759 
Q 947 2416 947 1791 
Q 947 1169 1205 825 
Q 1463 481 1925 481 
Q 2391 481 2648 825 
Q 2906 1169 2906 1791 
z
M 3481 434 
Q 3481 -459 3084 -895 
Q 2688 -1331 1869 -1331 
Q 1566 -1331 1297 -1286 
Q 1028 -1241 775 -1147 
L 775 -588 
Q 1028 -725 1275 -790 
Q 1522 -856 1778 -856 
Q 2344 -856 2625 -561 
Q 2906 -266 2906 331 
L 2906 616 
Q 2728 306 2450 153 
Q 2172 0 1784 0 
Q 1141 0 747 490 
Q 353 981 353 1791 
Q 353 2603 747 3093 
Q 1141 3584 1784 3584 
Q 2172 3584 2450 3431 
Q 2728 3278 2906 2969 
L 2906 3500 
L 3481 3500 
L 3481 434 
z
" transform="scale(0.015625)"/>
    </defs>
    <use xlink:href="#DejaVuSans-53"/>
    <use xlink:href="#DejaVuSans-65" transform="translate(63.476562 0)"/>
    <use xlink:href="#DejaVuSans-70" transform="translate(125 0)"/>
    <use xlink:href="#DejaVuSans-61" transform="translate(188.476562 0)"/>
    <use xlink:href="#DejaVuSans-72" transform="translate(249.755859 0)"/>
    <use xlink:href="#DejaVuSans-61" transform="translate(290.869141 0)"/>
    <use xlink:href="#DejaVuSans-74" transform="translate(352.148438 0)"/>
    <use xlink:href="#DejaVuSans-65" transform="translate(391.357422 0)"/>
    <use xlink:href="#DejaVuSans-20" transform="translate(452.880859 0)"/>
    <use xlink:href="#DejaVuSans-65" transform="translate(484.667969 0)"/>
    <use xlink:href="#DejaVuSans-76" transform="translate(546.191406 0)"/>
    <use xlink:href="#DejaVuSans-65" transform="translate(605.371094 0)"/>
    <use xlink:href="#DejaVuSans-6e" transform="translate(666.894531 0)"/>
    <use xlink:href="#DejaVuSans-74" transform="translate(730.273438 0)"/>
    <use xlink:href="#DejaVuSans-2d" transform="translate(769.482422 0)"/>
    <use xlink:href="#DejaVuSans-70" transform="translate(805.566406 0)"/>
    <use xlink:href="#DejaVuSans-72" transform="translate(869.042969 0)"/>
    <use xlink:href="#DejaVuSans-6f" transform="translate(907.90625 0)"/>
    <use xlink:href="#DejaVuSans-66" transform="translate(969.087891 0)"/>
    <use xlink:href="#DejaVuSans-69" transform="translate(1004.292969 0)"/>
    <use xlink:href="#DejaVuSans-6c" transform="translate(1032.076172 0)"/>
    <use xlink:href="#DejaVuSans-65" transform="translate(1059.859375 0)"/>
    <use xlink:href="#DejaVuSans-20" transform="translate(1121.382812 0)"/>
    <use xlink:href="#DejaVuSans-72" transform="translate(1153.169922 0)"/>
    <use xlink:href="#DejaVuSans-75" transform="translate(1194.283203 0)"/>
    <use xlink:href="#DejaVuSans-6e" transform="translate(1257.662109 0)"/>
    <use xlink:href="#DejaVuSans-2c" transform="translate(1321.041016 0)"/>
    <use xlink:href="#DejaVuSans-20" transform="translate(1352.828125 0)"/>
    <use xlink:href="#DejaVuSans-74" transform="translate(1384.615234 0)"/>
    <use xlink:href="#DejaVuSans-77" transform="translate(1423.824219 0)"/>
    <use xlink:href="#DejaVuSans-6f" transform="translate(1505.611328 0)"/>
    <use xlink:href="#DejaVuSans-20" transform="translate(1566.792969 0)"/>
    <use xlink:href="#DejaVuSans-6d" transform="translate(1598.580078 0)"/>
    <use xlink:href="#DejaVuSans-65" transform="translate(1695.992188 0)"/>
    <use xlink:href="#DejaVuSans-61" transform="translate(1757.515625 0)"/>
    <use xlink:href="#DejaVuSans-73" transform="translate(1818.794922 0)"/>
    <use xlink:href="#DejaVuSans-75" transform="translate(1870.894531 0)"/>
    <use xlink:href="#DejaVuSans-72" transform="translate(1934.273438 0)"/>
    <use xlink:href="#DejaVuSans-65" transform="translate(1973.136719 0)"/>
    <use xlink:href="#DejaVuSans-64" transform="translate(2034.660156 0)"/>
    <use xlink:href="#DejaVuSans-20" transform="translate(2098.136719 0)"/>
    <use xlink:href="#DejaVuSans-72" transform="translate(2129.923828 0)"/>
    <use xlink:href="#DejaVuSans-65" transform="translate(2168.787109 0)"/>
    <use xlink:href="#DejaVuSans-71" transform="translate(2230.310547 0)"/>
    <use xlink:href="#DejaVuSans-75" transform="translate(2293.787109 0)"/>
    <use xlink:href="#DejaVuSans-65" transform="translate(2357.166016 0)"/>
    <use xlink:href="#DejaVuSans-73" transform="translate(2418.689453 0)"/>
    <use xlink:href="#DejaVuSans-74" transform="translate(2470.789062 0)"/>
    <use xlink:href="#DejaVuSans-73" transform="translate(2509.998047 0)"/>
    <use xlink:href="#DejaVuSans-3b" transform="translate(2562.097656 0)"/>
    <use xlink:href="#DejaVuSans-20" transform="translate(2595.789062 0)"/>
    <use xlink:href="#DejaVuSans-74" transform="translate(2627.576172 0)"/>
    <use xlink:href="#DejaVuSans-68" transform="translate(2666.785156 0)"/>
    <use xlink:href="#DejaVuSans-72" transform="translate(2730.164062 0)"/>
    <use xlink:href="#DejaVuSans-65" transform="translate(2769.027344 0)"/>
    <use xlink:href="#DejaVuSans-65" transform="translate(2830.550781 0)"/>
    <use xlink:href="#DejaVuSans-20" transform="translate(2892.074219 0)"/>
    <use xlink:href="#DejaVuSans-6b" transform="translate(2923.861328 0)"/>
    <use xlink:href="#DejaVuSans-65" transform="translate(2978.146484 0)"/>
    <use xlink:href="#DejaVuSans-72" transform="translate(3039.669922 0)"/>
    <use xlink:href="#DejaVuSans-6e" transform="translate(3079.033203 0)"/>
    <use xlink:href="#DejaVuSans-65" transform="translate(3142.412109 0)"/>
    <use xlink:href="#DejaVuSans-6c" transform="translate(3203.935547 0)"/>
    <use xlink:href="#DejaVuSans-73" transform="translate(3231.71875 0)"/>
    <use xlink:href="#DejaVuSans-20" transform="translate(3283.818359 0)"/>
    <use xlink:href="#DejaVuSans-61" transform="translate(3315.605469 0)"/>
    <use xlink:href="#DejaVuSans-6e" transform="translate(3376.884766 0)"/>
    <use xlink:href="#DejaVuSans-64" transform="translate(3440.263672 0)"/>
    <use xlink:href="#DejaVuSans-20" transform="translate(3503.740234 0)"/>
    <use xlink:href="#DejaVuSans-6f" transform="translate(3535.527344 0)"/>
    <use xlink:href="#DejaVuSans-6e" transform="translate(3596.708984 0)"/>
    <use xlink:href="#DejaVuSans-65" transform="translate(3660.087891 0)"/>
    <use xlink:href="#DejaVuSans-20" transform="translate(3721.611328 0)"/>
    <use xlink:href="#DejaVuSans-62" transform="translate(3753.398438 0)"/>
    <use xlink:href="#DejaVuSans-6c" transform="translate(3816.875 0)"/>
    <use xlink:href="#DejaVuSans-6f" transform="translate(3844.658203 0)"/>
    <use xlink:href="#DejaVuSans-63" transform="translate(3905.839844 0)"/>
    <use xlink:href="#DejaVuSans-6b" transform="translate(3960.820312 0)"/>
    <use xlink:href="#DejaVuSans-69" transform="translate(4018.730469 0)"/>
    <use xlink:href="#DejaVuSans-6e" transform="translate(4046.513672 0)"/>
    <use xlink:href="#DejaVuSans-67" transform="translate(4109.892578 0)"/>
    <use xlink:href="#DejaVuSans-20" transform="translate(4173.369141 0)"/>
    <use xlink:href="#DejaVuSans-72" transform="translate(4205.15625 0)"/>
    <use xlink:href="#DejaVuSans-65" transform="translate(4244.019531 0)"/>
    <use xlink:href="#DejaVuSans-73" transform="translate(4305.542969 0)"/>
    <use xlink:href="#DejaVuSans-75" transform="translate(4357.642578 0)"/>
    <use xlink:href="#DejaVuSans-6c" transform="translate(4421.021484 0)"/>
    <use xlink:href="#DejaVuSans-74" transform="translate(4448.804688 0)"/>
    <use xlink:href="#DejaVuSans-20" transform="translate(4488.013672 0)"/>
    <use xlink:href="#DejaVuSans-72" transform="translate(4519.800781 0)"/>
    <use xlink:href="#DejaVuSans-65" transform="translate(4558.664062 0)"/>
    <use xlink:href="#DejaVuSans-61" transform="translate(4620.1875 0)"/>
    <use xlink:href="#DejaVuSans-64" transform="translate(4681.466797 0)"/>
    <use xlink:href="#DejaVuSans-20" transform="translate(4744.943359 0)"/>
    <use xlink:href="#DejaVuSans-70" transform="translate(4776.730469 0)"/>
    <use xlink:href="#DejaVuSans-65" transform="translate(4840.207031 0)"/>
    <use xlink:href="#DejaVuSans-72" transform="translate(4901.730469 0)"/>
    <use xlink:href="#DejaVuSans-20" transform="translate(4942.84375 0)"/>
    <use xlink:href="#DejaVuSans-6c" transform="translate(4974.630859 0)"/>
    <use xlink:href="#DejaVuSans-61" transform="translate(5002.414062 0)"/>
    <use xlink:href="#DejaVuSans-79" transform="translate(5063.693359 0)"/>
    <use xlink:href="#DejaVuSans-65" transform="translate(5122.873047 0)"/>
    <use xlink:href="#DejaVuSans-72" transform="translate(5184.396484 0)"/>
    <use xlink:href="#DejaVuSans-2e" transform="translate(5216.384766 0)"/>
   </g>
   <!-- Kernel intervals include GPU arithmetic and memory stalls. Residual includes host API, scheduling and wait costs. -->
   <g style="fill: #526171" transform="translate(43.2 365.472) scale(0.09 -0.09)">
    <defs>
     <path id="DejaVuSans-4b" d="M 628 4666 
L 1259 4666 
L 1259 2694 
L 3353 4666 
L 4166 4666 
L 1850 2491 
L 4331 0 
L 3500 0 
L 1259 2247 
L 1259 0 
L 628 0 
L 628 4666 
z
" transform="scale(0.015625)"/>
     <path id="DejaVuSans-52" d="M 2841 2188 
Q 3044 2119 3236 1894 
Q 3428 1669 3622 1275 
L 4263 0 
L 3584 0 
L 2988 1197 
Q 2756 1666 2539 1819 
Q 2322 1972 1947 1972 
L 1259 1972 
L 1259 0 
L 628 0 
L 628 4666 
L 2053 4666 
Q 2853 4666 3247 4331 
Q 3641 3997 3641 3322 
Q 3641 2881 3436 2590 
Q 3231 2300 2841 2188 
z
M 1259 4147 
L 1259 2491 
L 2053 2491 
Q 2509 2491 2742 2702 
Q 2975 2913 2975 3322 
Q 2975 3731 2742 3939 
Q 2509 4147 2053 4147 
L 1259 4147 
z
" transform="scale(0.015625)"/>
     <path id="DejaVuSans-41" d="M 2188 4044 
L 1331 1722 
L 3047 1722 
L 2188 4044 
z
M 1831 4666 
L 2547 4666 
L 4325 0 
L 3669 0 
L 3244 1197 
L 1141 1197 
L 716 0 
L 50 0 
L 1831 4666 
z
" transform="scale(0.015625)"/>
     <path id="DejaVuSans-49" d="M 628 4666 
L 1259 4666 
L 1259 0 
L 628 0 
L 628 4666 
z
" transform="scale(0.015625)"/>
    </defs>
    <use xlink:href="#DejaVuSans-4b"/>
    <use xlink:href="#DejaVuSans-65" transform="translate(60.576172 0)"/>
    <use xlink:href="#DejaVuSans-72" transform="translate(122.099609 0)"/>
    <use xlink:href="#DejaVuSans-6e" transform="translate(161.462891 0)"/>
    <use xlink:href="#DejaVuSans-65" transform="translate(224.841797 0)"/>
    <use xlink:href="#DejaVuSans-6c" transform="translate(286.365234 0)"/>
    <use xlink:href="#DejaVuSans-20" transform="translate(314.148438 0)"/>
    <use xlink:href="#DejaVuSans-69" transform="translate(345.935547 0)"/>
    <use xlink:href="#DejaVuSans-6e" transform="translate(373.71875 0)"/>
    <use xlink:href="#DejaVuSans-74" transform="translate(437.097656 0)"/>
    <use xlink:href="#DejaVuSans-65" transform="translate(476.306641 0)"/>
    <use xlink:href="#DejaVuSans-72" transform="translate(537.830078 0)"/>
    <use xlink:href="#DejaVuSans-76" transform="translate(578.943359 0)"/>
    <use xlink:href="#DejaVuSans-61" transform="translate(638.123047 0)"/>
    <use xlink:href="#DejaVuSans-6c" transform="translate(699.402344 0)"/>
    <use xlink:href="#DejaVuSans-73" transform="translate(727.185547 0)"/>
    <use xlink:href="#DejaVuSans-20" transform="translate(779.285156 0)"/>
    <use xlink:href="#DejaVuSans-69" transform="translate(811.072266 0)"/>
    <use xlink:href="#DejaVuSans-6e" transform="translate(838.855469 0)"/>
    <use xlink:href="#DejaVuSans-63" transform="translate(902.234375 0)"/>
    <use xlink:href="#DejaVuSans-6c" transform="translate(957.214844 0)"/>
    <use xlink:href="#DejaVuSans-75" transform="translate(984.998047 0)"/>
    <use xlink:href="#DejaVuSans-64" transform="translate(1048.376953 0)"/>
    <use xlink:href="#DejaVuSans-65" transform="translate(1111.853516 0)"/>
    <use xlink:href="#DejaVuSans-20" transform="translate(1173.376953 0)"/>
    <use xlink:href="#DejaVuSans-47" transform="translate(1205.164062 0)"/>
    <use xlink:href="#DejaVuSans-50" transform="translate(1282.654297 0)"/>
    <use xlink:href="#DejaVuSans-55" transform="translate(1342.957031 0)"/>
    <use xlink:href="#DejaVuSans-20" transform="translate(1416.150391 0)"/>
    <use xlink:href="#DejaVuSans-61" transform="translate(1447.9375 0)"/>
    <use xlink:href="#DejaVuSans-72" transform="translate(1509.216797 0)"/>
    <use xlink:href="#DejaVuSans-69" transform="translate(1550.330078 0)"/>
    <use xlink:href="#DejaVuSans-74" transform="translate(1578.113281 0)"/>
    <use xlink:href="#DejaVuSans-68" transform="translate(1617.322266 0)"/>
    <use xlink:href="#DejaVuSans-6d" transform="translate(1680.701172 0)"/>
    <use xlink:href="#DejaVuSans-65" transform="translate(1778.113281 0)"/>
    <use xlink:href="#DejaVuSans-74" transform="translate(1839.636719 0)"/>
    <use xlink:href="#DejaVuSans-69" transform="translate(1878.845703 0)"/>
    <use xlink:href="#DejaVuSans-63" transform="translate(1906.628906 0)"/>
    <use xlink:href="#DejaVuSans-20" transform="translate(1961.609375 0)"/>
    <use xlink:href="#DejaVuSans-61" transform="translate(1993.396484 0)"/>
    <use xlink:href="#DejaVuSans-6e" transform="translate(2054.675781 0)"/>
    <use xlink:href="#DejaVuSans-64" transform="translate(2118.054688 0)"/>
    <use xlink:href="#DejaVuSans-20" transform="translate(2181.53125 0)"/>
    <use xlink:href="#DejaVuSans-6d" transform="translate(2213.318359 0)"/>
    <use xlink:href="#DejaVuSans-65" transform="translate(2310.730469 0)"/>
    <use xlink:href="#DejaVuSans-6d" transform="translate(2372.253906 0)"/>
    <use xlink:href="#DejaVuSans-6f" transform="translate(2469.666016 0)"/>
    <use xlink:href="#DejaVuSans-72" transform="translate(2530.847656 0)"/>
    <use xlink:href="#DejaVuSans-79" transform="translate(2571.960938 0)"/>
    <use xlink:href="#DejaVuSans-20" transform="translate(2631.140625 0)"/>
    <use xlink:href="#DejaVuSans-73" transform="translate(2662.927734 0)"/>
    <use xlink:href="#DejaVuSans-74" transform="translate(2715.027344 0)"/>
    <use xlink:href="#DejaVuSans-61" transform="translate(2754.236328 0)"/>
    <use xlink:href="#DejaVuSans-6c" transform="translate(2815.515625 0)"/>
    <use xlink:href="#DejaVuSans-6c" transform="translate(2843.298828 0)"/>
    <use xlink:href="#DejaVuSans-73" transform="translate(2871.082031 0)"/>
    <use xlink:href="#DejaVuSans-2e" transform="translate(2923.181641 0)"/>
    <use xlink:href="#DejaVuSans-20" transform="translate(2954.96875 0)"/>
    <use xlink:href="#DejaVuSans-52" transform="translate(2986.755859 0)"/>
    <use xlink:href="#DejaVuSans-65" transform="translate(3051.738281 0)"/>
    <use xlink:href="#DejaVuSans-73" transform="translate(3113.261719 0)"/>
    <use xlink:href="#DejaVuSans-69" transform="translate(3165.361328 0)"/>
    <use xlink:href="#DejaVuSans-64" transform="translate(3193.144531 0)"/>
    <use xlink:href="#DejaVuSans-75" transform="translate(3256.621094 0)"/>
    <use xlink:href="#DejaVuSans-61" transform="translate(3320 0)"/>
    <use xlink:href="#DejaVuSans-6c" transform="translate(3381.279297 0)"/>
    <use xlink:href="#DejaVuSans-20" transform="translate(3409.0625 0)"/>
    <use xlink:href="#DejaVuSans-69" transform="translate(3440.849609 0)"/>
    <use xlink:href="#DejaVuSans-6e" transform="translate(3468.632812 0)"/>
    <use xlink:href="#DejaVuSans-63" transform="translate(3532.011719 0)"/>
    <use xlink:href="#DejaVuSans-6c" transform="translate(3586.992188 0)"/>
    <use xlink:href="#DejaVuSans-75" transform="translate(3614.775391 0)"/>
    <use xlink:href="#DejaVuSans-64" transform="translate(3678.154297 0)"/>
    <use xlink:href="#DejaVuSans-65" transform="translate(3741.630859 0)"/>
    <use xlink:href="#DejaVuSans-73" transform="translate(3803.154297 0)"/>
    <use xlink:href="#DejaVuSans-20" transform="translate(3855.253906 0)"/>
    <use xlink:href="#DejaVuSans-68" transform="translate(3887.041016 0)"/>
    <use xlink:href="#DejaVuSans-6f" transform="translate(3950.419922 0)"/>
    <use xlink:href="#DejaVuSans-73" transform="translate(4011.601562 0)"/>
    <use xlink:href="#DejaVuSans-74" transform="translate(4063.701172 0)"/>
    <use xlink:href="#DejaVuSans-20" transform="translate(4102.910156 0)"/>
    <use xlink:href="#DejaVuSans-41" transform="translate(4134.697266 0)"/>
    <use xlink:href="#DejaVuSans-50" transform="translate(4203.105469 0)"/>
    <use xlink:href="#DejaVuSans-49" transform="translate(4263.408203 0)"/>
    <use xlink:href="#DejaVuSans-2c" transform="translate(4292.900391 0)"/>
    <use xlink:href="#DejaVuSans-20" transform="translate(4324.6875 0)"/>
    <use xlink:href="#DejaVuSans-73" transform="translate(4356.474609 0)"/>
    <use xlink:href="#DejaVuSans-63" transform="translate(4408.574219 0)"/>
    <use xlink:href="#DejaVuSans-68" transform="translate(4463.554688 0)"/>
    <use xlink:href="#DejaVuSans-65" transform="translate(4526.933594 0)"/>
    <use xlink:href="#DejaVuSans-64" transform="translate(4588.457031 0)"/>
    <use xlink:href="#DejaVuSans-75" transform="translate(4651.933594 0)"/>
    <use xlink:href="#DejaVuSans-6c" transform="translate(4715.3125 0)"/>
    <use xlink:href="#DejaVuSans-69" transform="translate(4743.095703 0)"/>
    <use xlink:href="#DejaVuSans-6e" transform="translate(4770.878906 0)"/>
    <use xlink:href="#DejaVuSans-67" transform="translate(4834.257812 0)"/>
    <use xlink:href="#DejaVuSans-20" transform="translate(4897.734375 0)"/>
    <use xlink:href="#DejaVuSans-61" transform="translate(4929.521484 0)"/>
    <use xlink:href="#DejaVuSans-6e" transform="translate(4990.800781 0)"/>
    <use xlink:href="#DejaVuSans-64" transform="translate(5054.179688 0)"/>
    <use xlink:href="#DejaVuSans-20" transform="translate(5117.65625 0)"/>
    <use xlink:href="#DejaVuSans-77" transform="translate(5149.443359 0)"/>
    <use xlink:href="#DejaVuSans-61" transform="translate(5231.230469 0)"/>
    <use xlink:href="#DejaVuSans-69" transform="translate(5292.509766 0)"/>
    <use xlink:href="#DejaVuSans-74" transform="translate(5320.292969 0)"/>
    <use xlink:href="#DejaVuSans-20" transform="translate(5359.501953 0)"/>
    <use xlink:href="#DejaVuSans-63" transform="translate(5391.289062 0)"/>
    <use xlink:href="#DejaVuSans-6f" transform="translate(5446.269531 0)"/>
    <use xlink:href="#DejaVuSans-73" transform="translate(5507.451172 0)"/>
    <use xlink:href="#DejaVuSans-74" transform="translate(5559.550781 0)"/>
    <use xlink:href="#DejaVuSans-73" transform="translate(5598.759766 0)"/>
    <use xlink:href="#DejaVuSans-2e" transform="translate(5650.859375 0)"/>
   </g>
  </g>
  <g id="legend_1">
   <g id="patch_11">
    <path d="M 164.066406 282.268063 
L 184.066406 282.268063 
L 184.066406 275.268063 
L 164.066406 275.268063 
z
" style="fill: #b8742f"/>
   </g>
   <g id="text_15">
    <!-- Upload events: 0.064 ms -->
    <g transform="translate(192.066406 282.268063) scale(0.1 -0.1)">
     <defs>
      <path id="DejaVuSans-3a" d="M 750 794 
L 1409 794 
L 1409 0 
L 750 0 
L 750 794 
z
M 750 3309 
L 1409 3309 
L 1409 2516 
L 750 2516 
L 750 3309 
z
" transform="scale(0.015625)"/>
     </defs>
     <use xlink:href="#DejaVuSans-55"/>
     <use xlink:href="#DejaVuSans-70" transform="translate(73.193359 0)"/>
     <use xlink:href="#DejaVuSans-6c" transform="translate(136.669922 0)"/>
     <use xlink:href="#DejaVuSans-6f" transform="translate(164.453125 0)"/>
     <use xlink:href="#DejaVuSans-61" transform="translate(225.634766 0)"/>
     <use xlink:href="#DejaVuSans-64" transform="translate(286.914062 0)"/>
     <use xlink:href="#DejaVuSans-20" transform="translate(350.390625 0)"/>
     <use xlink:href="#DejaVuSans-65" transform="translate(382.177734 0)"/>
     <use xlink:href="#DejaVuSans-76" transform="translate(443.701172 0)"/>
     <use xlink:href="#DejaVuSans-65" transform="translate(502.880859 0)"/>
     <use xlink:href="#DejaVuSans-6e" transform="translate(564.404297 0)"/>
     <use xlink:href="#DejaVuSans-74" transform="translate(627.783203 0)"/>
     <use xlink:href="#DejaVuSans-73" transform="translate(666.992188 0)"/>
     <use xlink:href="#DejaVuSans-3a" transform="translate(719.091797 0)"/>
     <use xlink:href="#DejaVuSans-20" transform="translate(752.783203 0)"/>
     <use xlink:href="#DejaVuSans-30" transform="translate(784.570312 0)"/>
     <use xlink:href="#DejaVuSans-2e" transform="translate(848.193359 0)"/>
     <use xlink:href="#DejaVuSans-30" transform="translate(879.980469 0)"/>
     <use xlink:href="#DejaVuSans-36" transform="translate(943.603516 0)"/>
     <use xlink:href="#DejaVuSans-34" transform="translate(1007.226562 0)"/>
     <use xlink:href="#DejaVuSans-20" transform="translate(1070.849609 0)"/>
     <use xlink:href="#DejaVuSans-6d" transform="translate(1102.636719 0)"/>
     <use xlink:href="#DejaVuSans-73" transform="translate(1200.048828 0)"/>
    </g>
   </g>
   <g id="patch_12">
    <path d="M 164.066406 296.946188 
L 184.066406 296.946188 
L 184.066406 289.946188 
L 164.066406 289.946188 
z
" style="fill: #5b70c1"/>
   </g>
   <g id="text_16">
    <!-- Q × K scores: 2.345 ms -->
    <g transform="translate(192.066406 296.946188) scale(0.1 -0.1)">
     <defs>
      <path id="DejaVuSans-51" d="M 2522 4238 
Q 1834 4238 1429 3725 
Q 1025 3213 1025 2328 
Q 1025 1447 1429 934 
Q 1834 422 2522 422 
Q 3209 422 3611 934 
Q 4013 1447 4013 2328 
Q 4013 3213 3611 3725 
Q 3209 4238 2522 4238 
z
M 3406 84 
L 4238 -825 
L 3475 -825 
L 2784 -78 
Q 2681 -84 2626 -87 
Q 2572 -91 2522 -91 
Q 1538 -91 948 567 
Q 359 1225 359 2328 
Q 359 3434 948 4092 
Q 1538 4750 2522 4750 
Q 3503 4750 4090 4092 
Q 4678 3434 4678 2328 
Q 4678 1516 4351 937 
Q 4025 359 3406 84 
z
" transform="scale(0.015625)"/>
      <path id="DejaVuSans-d7" d="M 4488 3438 
L 3059 2003 
L 4488 575 
L 4116 197 
L 2681 1631 
L 1247 197 
L 878 575 
L 2303 2003 
L 878 3438 
L 1247 3816 
L 2681 2381 
L 4116 3816 
L 4488 3438 
z
" transform="scale(0.015625)"/>
     </defs>
     <use xlink:href="#DejaVuSans-51"/>
     <use xlink:href="#DejaVuSans-20" transform="translate(78.710938 0)"/>
     <use xlink:href="#DejaVuSans-d7" transform="translate(110.498047 0)"/>
     <use xlink:href="#DejaVuSans-20" transform="translate(194.287109 0)"/>
     <use xlink:href="#DejaVuSans-4b" transform="translate(226.074219 0)"/>
     <use xlink:href="#DejaVuSans-20" transform="translate(291.650391 0)"/>
     <use xlink:href="#DejaVuSans-73" transform="translate(323.4375 0)"/>
     <use xlink:href="#DejaVuSans-63" transform="translate(375.537109 0)"/>
     <use xlink:href="#DejaVuSans-6f" transform="translate(430.517578 0)"/>
     <use xlink:href="#DejaVuSans-72" transform="translate(491.699219 0)"/>
     <use xlink:href="#DejaVuSans-65" transform="translate(530.5625 0)"/>
     <use xlink:href="#DejaVuSans-73" transform="translate(592.085938 0)"/>
     <use xlink:href="#DejaVuSans-3a" transform="translate(644.185547 0)"/>
     <use xlink:href="#DejaVuSans-20" transform="translate(677.876953 0)"/>
     <use xlink:href="#DejaVuSans-32" transform="translate(709.664062 0)"/>
     <use xlink:href="#DejaVuSans-2e" transform="translate(773.287109 0)"/>
     <use xlink:href="#DejaVuSans-33" transform="translate(805.074219 0)"/>
     <use xlink:href="#DejaVuSans-34" transform="translate(868.697266 0)"/>
     <use xlink:href="#DejaVuSans-35" transform="translate(932.320312 0)"/>
     <use xlink:href="#DejaVuSans-20" transform="translate(995.943359 0)"/>
     <use xlink:href="#DejaVuSans-6d" transform="translate(1027.730469 0)"/>
     <use xlink:href="#DejaVuSans-73" transform="translate(1125.142578 0)"/>
    </g>
   </g>
   <g id="patch_13">
    <path d="M 164.066406 311.624313 
L 184.066406 311.624313 
L 184.066406 304.624313 
L 164.066406 304.624313 
z
" style="fill: #008575"/>
   </g>
   <g id="text_17">
    <!-- Softmax: 5.268 ms -->
    <g transform="translate(192.066406 311.624313) scale(0.1 -0.1)">
     <defs>
      <path id="DejaVuSans-78" d="M 3513 3500 
L 2247 1797 
L 3578 0 
L 2900 0 
L 1881 1375 
L 863 0 
L 184 0 
L 1544 1831 
L 300 3500 
L 978 3500 
L 1906 2253 
L 2834 3500 
L 3513 3500 
z
" transform="scale(0.015625)"/>
     </defs>
     <use xlink:href="#DejaVuSans-53"/>
     <use xlink:href="#DejaVuSans-6f" transform="translate(63.476562 0)"/>
     <use xlink:href="#DejaVuSans-66" transform="translate(124.658203 0)"/>
     <use xlink:href="#DejaVuSans-74" transform="translate(158.113281 0)"/>
     <use xlink:href="#DejaVuSans-6d" transform="translate(197.322266 0)"/>
     <use xlink:href="#DejaVuSans-61" transform="translate(294.734375 0)"/>
     <use xlink:href="#DejaVuSans-78" transform="translate(356.013672 0)"/>
     <use xlink:href="#DejaVuSans-3a" transform="translate(415.193359 0)"/>
     <use xlink:href="#DejaVuSans-20" transform="translate(448.884766 0)"/>
     <use xlink:href="#DejaVuSans-35" transform="translate(480.671875 0)"/>
     <use xlink:href="#DejaVuSans-2e" transform="translate(544.294922 0)"/>
     <use xlink:href="#DejaVuSans-32" transform="translate(576.082031 0)"/>
     <use xlink:href="#DejaVuSans-36" transform="translate(639.705078 0)"/>
     <use xlink:href="#DejaVuSans-38" transform="translate(703.328125 0)"/>
     <use xlink:href="#DejaVuSans-20" transform="translate(766.951172 0)"/>
     <use xlink:href="#DejaVuSans-6d" transform="translate(798.738281 0)"/>
     <use xlink:href="#DejaVuSans-73" transform="translate(896.150391 0)"/>
    </g>
   </g>
   <g id="patch_14">
    <path d="M 337.280469 282.268063 
L 357.280469 282.268063 
L 357.280469 275.268063 
L 337.280469 275.268063 
z
" style="fill: #9b74b5"/>
   </g>
   <g id="text_18">
    <!-- P × V: 2.643 ms -->
    <g transform="translate(365.280469 282.268063) scale(0.1 -0.1)">
     <defs>
      <path id="DejaVuSans-56" d="M 1831 0 
L 50 4666 
L 709 4666 
L 2188 738 
L 3669 4666 
L 4325 4666 
L 2547 0 
L 1831 0 
z
" transform="scale(0.015625)"/>
     </defs>
     <use xlink:href="#DejaVuSans-50"/>
     <use xlink:href="#DejaVuSans-20" transform="translate(60.302734 0)"/>
     <use xlink:href="#DejaVuSans-d7" transform="translate(92.089844 0)"/>
     <use xlink:href="#DejaVuSans-20" transform="translate(175.878906 0)"/>
     <use xlink:href="#DejaVuSans-56" transform="translate(207.666016 0)"/>
     <use xlink:href="#DejaVuSans-3a" transform="translate(267.949219 0)"/>
     <use xlink:href="#DejaVuSans-20" transform="translate(301.640625 0)"/>
     <use xlink:href="#DejaVuSans-32" transform="translate(333.427734 0)"/>
     <use xlink:href="#DejaVuSans-2e" transform="translate(397.050781 0)"/>
     <use xlink:href="#DejaVuSans-36" transform="translate(428.837891 0)"/>
     <use xlink:href="#DejaVuSans-34" transform="translate(492.460938 0)"/>
     <use xlink:href="#DejaVuSans-33" transform="translate(556.083984 0)"/>
     <use xlink:href="#DejaVuSans-20" transform="translate(619.707031 0)"/>
     <use xlink:href="#DejaVuSans-6d" transform="translate(651.494141 0)"/>
     <use xlink:href="#DejaVuSans-73" transform="translate(748.90625 0)"/>
    </g>
   </g>
   <g id="patch_15">
    <path d="M 337.280469 296.946188 
L 357.280469 296.946188 
L 357.280469 289.946188 
L 337.280469 289.946188 
z
" style="fill: #ddab65"/>
   </g>
   <g id="text_19">
    <!-- Read events: 0.035 ms -->
    <g transform="translate(365.280469 296.946188) scale(0.1 -0.1)">
     <use xlink:href="#DejaVuSans-52"/>
     <use xlink:href="#DejaVuSans-65" transform="translate(64.982422 0)"/>
     <use xlink:href="#DejaVuSans-61" transform="translate(126.505859 0)"/>
     <use xlink:href="#DejaVuSans-64" transform="translate(187.785156 0)"/>
     <use xlink:href="#DejaVuSans-20" transform="translate(251.261719 0)"/>
     <use xlink:href="#DejaVuSans-65" transform="translate(283.048828 0)"/>
     <use xlink:href="#DejaVuSans-76" transform="translate(344.572266 0)"/>
     <use xlink:href="#DejaVuSans-65" transform="translate(403.751953 0)"/>
     <use xlink:href="#DejaVuSans-6e" transform="translate(465.275391 0)"/>
     <use xlink:href="#DejaVuSans-74" transform="translate(528.654297 0)"/>
     <use xlink:href="#DejaVuSans-73" transform="translate(567.863281 0)"/>
     <use xlink:href="#DejaVuSans-3a" transform="translate(619.962891 0)"/>
     <use xlink:href="#DejaVuSans-20" transform="translate(653.654297 0)"/>
     <use xlink:href="#DejaVuSans-30" transform="translate(685.441406 0)"/>
     <use xlink:href="#DejaVuSans-2e" transform="translate(749.064453 0)"/>
     <use xlink:href="#DejaVuSans-30" transform="translate(780.851562 0)"/>
     <use xlink:href="#DejaVuSans-33" transform="translate(844.474609 0)"/>
     <use xlink:href="#DejaVuSans-35" transform="translate(908.097656 0)"/>
     <use xlink:href="#DejaVuSans-20" transform="translate(971.720703 0)"/>
     <use xlink:href="#DejaVuSans-6d" transform="translate(1003.507812 0)"/>
     <use xlink:href="#DejaVuSans-73" transform="translate(1100.919922 0)"/>
    </g>
   </g>
   <g id="patch_16">
    <path d="M 337.280469 311.624313 
L 357.280469 311.624313 
L 357.280469 304.624313 
L 337.280469 304.624313 
z
" style="fill: #74899e"/>
   </g>
   <g id="text_20">
    <!-- Host / queue / wait residual: 3.448 ms -->
    <g transform="translate(365.280469 311.624313) scale(0.1 -0.1)">
     <defs>
      <path id="DejaVuSans-48" d="M 628 4666 
L 1259 4666 
L 1259 2753 
L 3553 2753 
L 3553 4666 
L 4184 4666 
L 4184 0 
L 3553 0 
L 3553 2222 
L 1259 2222 
L 1259 0 
L 628 0 
L 628 4666 
z
" transform="scale(0.015625)"/>
      <path id="DejaVuSans-2f" d="M 1625 4666 
L 2156 4666 
L 531 -594 
L 0 -594 
L 1625 4666 
z
" transform="scale(0.015625)"/>
     </defs>
     <use xlink:href="#DejaVuSans-48"/>
     <use xlink:href="#DejaVuSans-6f" transform="translate(75.195312 0)"/>
     <use xlink:href="#DejaVuSans-73" transform="translate(136.376953 0)"/>
     <use xlink:href="#DejaVuSans-74" transform="translate(188.476562 0)"/>
     <use xlink:href="#DejaVuSans-20" transform="translate(227.685547 0)"/>
     <use xlink:href="#DejaVuSans-2f" transform="translate(259.472656 0)"/>
     <use xlink:href="#DejaVuSans-20" transform="translate(293.164062 0)"/>
     <use xlink:href="#DejaVuSans-71" transform="translate(324.951172 0)"/>
     <use xlink:href="#DejaVuSans-75" transform="translate(388.427734 0)"/>
     <use xlink:href="#DejaVuSans-65" transform="translate(451.806641 0)"/>
     <use xlink:href="#DejaVuSans-75" transform="translate(513.330078 0)"/>
     <use xlink:href="#DejaVuSans-65" transform="translate(576.708984 0)"/>
     <use xlink:href="#DejaVuSans-20" transform="translate(638.232422 0)"/>
     <use xlink:href="#DejaVuSans-2f" transform="translate(670.019531 0)"/>
     <use xlink:href="#DejaVuSans-20" transform="translate(703.710938 0)"/>
     <use xlink:href="#DejaVuSans-77" transform="translate(735.498047 0)"/>
     <use xlink:href="#DejaVuSans-61" transform="translate(817.285156 0)"/>
     <use xlink:href="#DejaVuSans-69" transform="translate(878.564453 0)"/>
     <use xlink:href="#DejaVuSans-74" transform="translate(906.347656 0)"/>
     <use xlink:href="#DejaVuSans-20" transform="translate(945.556641 0)"/>
     <use xlink:href="#DejaVuSans-72" transform="translate(977.34375 0)"/>
     <use xlink:href="#DejaVuSans-65" transform="translate(1016.207031 0)"/>
     <use xlink:href="#DejaVuSans-73" transform="translate(1077.730469 0)"/>
     <use xlink:href="#DejaVuSans-69" transform="translate(1129.830078 0)"/>
     <use xlink:href="#DejaVuSans-64" transform="translate(1157.613281 0)"/>
     <use xlink:href="#DejaVuSans-75" transform="translate(1221.089844 0)"/>
     <use xlink:href="#DejaVuSans-61" transform="translate(1284.46875 0)"/>
     <use xlink:href="#DejaVuSans-6c" transform="translate(1345.748047 0)"/>
     <use xlink:href="#DejaVuSans-3a" transform="translate(1373.53125 0)"/>
     <use xlink:href="#DejaVuSans-20" transform="translate(1407.222656 0)"/>
     <use xlink:href="#DejaVuSans-33" transform="translate(1439.009766 0)"/>
     <use xlink:href="#DejaVuSans-2e" transform="translate(1502.632812 0)"/>
     <use xlink:href="#DejaVuSans-34" transform="translate(1534.419922 0)"/>
     <use xlink:href="#DejaVuSans-34" transform="translate(1598.042969 0)"/>
     <use xlink:href="#DejaVuSans-38" transform="translate(1661.666016 0)"/>
     <use xlink:href="#DejaVuSans-20" transform="translate(1725.289062 0)"/>
     <use xlink:href="#DejaVuSans-6d" transform="translate(1757.076172 0)"/>
     <use xlink:href="#DejaVuSans-73" transform="translate(1854.488281 0)"/>
    </g>
   </g>
  </g>
 </g>
 <defs>
  <clipPath id="p71438846d8">
   <rect x="115.2" y="77.76" width="576" height="143.856"/>
  </clipPath>
 </defs>
</svg>
